<mxfile host="Electron" modified="2023-10-08T15:12:50.434Z" agent="Mozilla/5.0 (X11; Linux x86_64) AppleWebKit/537.36 (KHTML, like Gecko) draw.io/22.0.2 Chrome/114.0.5735.289 Electron/25.8.4 Safari/537.36" etag="xNupjfjn_0LMXGg2Qt8a" version="22.0.2" type="device">
  <diagram name="statestored" id="aqN1Ph9W2qQamYgtc6eH">
    <mxGraphModel dx="1781" dy="663" grid="1" gridSize="10" guides="1" tooltips="1" connect="1" arrows="1" fold="1" page="1" pageScale="1" pageWidth="827" pageHeight="1169" math="0" shadow="0">
      <root>
        <mxCell id="0" />
        <mxCell id="1" parent="0" />
        <mxCell id="8jF7TPRkGaJK1Sz48vTi-9" style="edgeStyle=orthogonalEdgeStyle;rounded=0;orthogonalLoop=1;jettySize=auto;html=1;exitX=1;exitY=0.5;exitDx=0;exitDy=0;exitPerimeter=0;startArrow=classic;startFill=1;endArrow=none;endFill=0;dashed=1;" edge="1" parent="1" source="8jF7TPRkGaJK1Sz48vTi-1" target="8jF7TPRkGaJK1Sz48vTi-2">
          <mxGeometry relative="1" as="geometry" />
        </mxCell>
        <mxCell id="8jF7TPRkGaJK1Sz48vTi-11" value="Heartbeat" style="edgeLabel;html=1;align=center;verticalAlign=middle;resizable=0;points=[];" vertex="1" connectable="0" parent="8jF7TPRkGaJK1Sz48vTi-9">
          <mxGeometry x="-0.055" relative="1" as="geometry">
            <mxPoint x="4" y="-8" as="offset" />
          </mxGeometry>
        </mxCell>
        <mxCell id="8jF7TPRkGaJK1Sz48vTi-1" value="Subscriber" style="shape=cylinder3;whiteSpace=wrap;html=1;boundedLbl=1;backgroundOutline=1;size=15;fillColor=#f0a30a;strokeColor=#BD7000;fontColor=#000000;" vertex="1" parent="1">
          <mxGeometry x="170" y="240" width="100" height="100" as="geometry" />
        </mxCell>
        <mxCell id="8jF7TPRkGaJK1Sz48vTi-2" value="Statestored" style="shape=cylinder3;whiteSpace=wrap;html=1;boundedLbl=1;backgroundOutline=1;size=15;fillColor=#1ba1e2;strokeColor=#006EAF;fontColor=#ffffff;" vertex="1" parent="1">
          <mxGeometry x="440" y="240" width="100" height="100" as="geometry" />
        </mxCell>
        <mxCell id="8jF7TPRkGaJK1Sz48vTi-4" value="" style="endArrow=classic;html=1;rounded=0;exitX=1;exitY=0;exitDx=0;exitDy=25;exitPerimeter=0;entryX=0;entryY=0;entryDx=0;entryDy=25;entryPerimeter=0;" edge="1" parent="1" source="8jF7TPRkGaJK1Sz48vTi-1" target="8jF7TPRkGaJK1Sz48vTi-2">
          <mxGeometry width="50" height="50" relative="1" as="geometry">
            <mxPoint x="380" y="430" as="sourcePoint" />
            <mxPoint x="430" y="380" as="targetPoint" />
          </mxGeometry>
        </mxCell>
        <mxCell id="8jF7TPRkGaJK1Sz48vTi-8" value="Register" style="edgeLabel;html=1;align=center;verticalAlign=middle;resizable=0;points=[];" vertex="1" connectable="0" parent="8jF7TPRkGaJK1Sz48vTi-4">
          <mxGeometry x="-0.005" y="-1" relative="1" as="geometry">
            <mxPoint x="-1" y="-9" as="offset" />
          </mxGeometry>
        </mxCell>
        <mxCell id="8jF7TPRkGaJK1Sz48vTi-5" value="" style="endArrow=classic;html=1;rounded=0;entryX=1;entryY=1;entryDx=0;entryDy=-15;entryPerimeter=0;exitX=0;exitY=1;exitDx=0;exitDy=-15;exitPerimeter=0;" edge="1" parent="1" source="8jF7TPRkGaJK1Sz48vTi-2" target="8jF7TPRkGaJK1Sz48vTi-1">
          <mxGeometry width="50" height="50" relative="1" as="geometry">
            <mxPoint x="390" y="410" as="sourcePoint" />
            <mxPoint x="440" y="360" as="targetPoint" />
          </mxGeometry>
        </mxCell>
        <mxCell id="8jF7TPRkGaJK1Sz48vTi-13" value="UpdateState" style="edgeLabel;html=1;align=center;verticalAlign=middle;resizable=0;points=[];" vertex="1" connectable="0" parent="8jF7TPRkGaJK1Sz48vTi-5">
          <mxGeometry x="-0.3217" y="1" relative="1" as="geometry">
            <mxPoint x="-25" y="-9" as="offset" />
          </mxGeometry>
        </mxCell>
        <mxCell id="8jF7TPRkGaJK1Sz48vTi-14" value="Statestore" style="swimlane;fontStyle=1;childLayout=stackLayout;horizontal=1;startSize=30;horizontalStack=0;resizeParent=1;resizeParentMax=0;resizeLast=0;collapsible=1;marginBottom=0;whiteSpace=wrap;html=1;aspect=fixed;fillColor=#1ba1e2;fontColor=#ffffff;strokeColor=#006EAF;fontSize=13;" vertex="1" parent="1">
          <mxGeometry x="-2" y="570" width="190" height="110" as="geometry" />
        </mxCell>
        <mxCell id="8jF7TPRkGaJK1Sz48vTi-15" value="topics_" style="text;strokeColor=none;fillColor=none;align=left;verticalAlign=middle;spacingLeft=4;spacingRight=4;overflow=hidden;points=[[0,0.5],[1,0.5]];portConstraint=eastwest;rotatable=0;whiteSpace=wrap;html=1;fontSize=13;fontStyle=1" vertex="1" parent="8jF7TPRkGaJK1Sz48vTi-14">
          <mxGeometry y="30" width="190" height="30" as="geometry" />
        </mxCell>
        <mxCell id="8jF7TPRkGaJK1Sz48vTi-16" value="subscribers_" style="text;strokeColor=none;fillColor=none;align=left;verticalAlign=middle;spacingLeft=4;spacingRight=4;overflow=hidden;points=[[0,0.5],[1,0.5]];portConstraint=eastwest;rotatable=0;whiteSpace=wrap;html=1;fontSize=13;fontStyle=1" vertex="1" parent="8jF7TPRkGaJK1Sz48vTi-14">
          <mxGeometry y="60" width="190" height="50" as="geometry" />
        </mxCell>
        <mxCell id="8jF7TPRkGaJK1Sz48vTi-18" value="Topic" style="swimlane;fontStyle=1;childLayout=stackLayout;horizontal=1;startSize=30;horizontalStack=0;resizeParent=1;resizeParentMax=0;resizeLast=0;collapsible=1;marginBottom=0;whiteSpace=wrap;html=1;fillColor=#1ba1e2;strokeColor=#006EAF;fontColor=#ffffff;fontSize=13;" vertex="1" parent="1">
          <mxGeometry x="497" y="595" width="140" height="120" as="geometry" />
        </mxCell>
        <mxCell id="8jF7TPRkGaJK1Sz48vTi-19" value="entries_" style="text;strokeColor=none;fillColor=none;align=left;verticalAlign=middle;spacingLeft=4;spacingRight=4;overflow=hidden;points=[[0,0.5],[1,0.5]];portConstraint=eastwest;rotatable=0;whiteSpace=wrap;html=1;fontSize=13;fontStyle=1" vertex="1" parent="8jF7TPRkGaJK1Sz48vTi-18">
          <mxGeometry y="30" width="140" height="30" as="geometry" />
        </mxCell>
        <mxCell id="8jF7TPRkGaJK1Sz48vTi-20" value="topic_update_log_" style="text;strokeColor=none;fillColor=none;align=left;verticalAlign=middle;spacingLeft=4;spacingRight=4;overflow=hidden;points=[[0,0.5],[1,0.5]];portConstraint=eastwest;rotatable=0;whiteSpace=wrap;html=1;fontSize=13;fontStyle=1" vertex="1" parent="8jF7TPRkGaJK1Sz48vTi-18">
          <mxGeometry y="60" width="140" height="30" as="geometry" />
        </mxCell>
        <mxCell id="8jF7TPRkGaJK1Sz48vTi-21" value="last_version_" style="text;strokeColor=none;fillColor=none;align=left;verticalAlign=middle;spacingLeft=4;spacingRight=4;overflow=hidden;points=[[0,0.5],[1,0.5]];portConstraint=eastwest;rotatable=0;whiteSpace=wrap;html=1;fontSize=13;fontStyle=1" vertex="1" parent="8jF7TPRkGaJK1Sz48vTi-18">
          <mxGeometry y="90" width="140" height="30" as="geometry" />
        </mxCell>
        <mxCell id="8jF7TPRkGaJK1Sz48vTi-62" value="" style="endArrow=classic;startArrow=none;html=1;rounded=0;exitX=0;exitY=0.5;exitDx=0;exitDy=0;dashed=1;startFill=0;entryX=0;entryY=0.5;entryDx=0;entryDy=0;edgeStyle=orthogonalEdgeStyle;" edge="1" parent="8jF7TPRkGaJK1Sz48vTi-18" source="8jF7TPRkGaJK1Sz48vTi-20" target="8jF7TPRkGaJK1Sz48vTi-19">
          <mxGeometry width="50" height="50" relative="1" as="geometry">
            <mxPoint x="143" y="75" as="sourcePoint" />
            <mxPoint x="356" y="75" as="targetPoint" />
            <Array as="points">
              <mxPoint x="-167" y="75" />
              <mxPoint x="-167" y="45" />
            </Array>
          </mxGeometry>
        </mxCell>
        <mxCell id="8jF7TPRkGaJK1Sz48vTi-63" value="&amp;lt;Version, TopicEntryKey&amp;gt;" style="edgeLabel;html=1;align=center;verticalAlign=middle;resizable=0;points=[];fontSize=13;" vertex="1" connectable="0" parent="8jF7TPRkGaJK1Sz48vTi-62">
          <mxGeometry x="-0.0306" y="-1" relative="1" as="geometry">
            <mxPoint as="offset" />
          </mxGeometry>
        </mxCell>
        <mxCell id="8jF7TPRkGaJK1Sz48vTi-23" value="" style="endArrow=classic;html=1;rounded=0;exitX=1;exitY=0.5;exitDx=0;exitDy=0;entryX=-0.036;entryY=0.167;entryDx=0;entryDy=0;entryPerimeter=0;fontSize=13;fontStyle=1" edge="1" parent="1" source="8jF7TPRkGaJK1Sz48vTi-15" target="8jF7TPRkGaJK1Sz48vTi-18">
          <mxGeometry width="50" height="50" relative="1" as="geometry">
            <mxPoint x="160" y="680" as="sourcePoint" />
            <mxPoint x="210" y="630" as="targetPoint" />
          </mxGeometry>
        </mxCell>
        <mxCell id="8jF7TPRkGaJK1Sz48vTi-43" value="&amp;lt;TopicId, Topic&amp;gt;" style="edgeLabel;html=1;align=center;verticalAlign=middle;resizable=0;points=[];fontSize=13;fontStyle=0" vertex="1" connectable="0" parent="8jF7TPRkGaJK1Sz48vTi-23">
          <mxGeometry x="-0.0712" y="1" relative="1" as="geometry">
            <mxPoint as="offset" />
          </mxGeometry>
        </mxCell>
        <mxCell id="8jF7TPRkGaJK1Sz48vTi-24" value="Subscriber" style="swimlane;fontStyle=1;childLayout=stackLayout;horizontal=1;startSize=30;horizontalStack=0;resizeParent=1;resizeParentMax=0;resizeLast=0;collapsible=1;marginBottom=0;whiteSpace=wrap;html=1;fillColor=#1ba1e2;fontColor=#ffffff;strokeColor=#006EAF;fontSize=13;" vertex="1" parent="1">
          <mxGeometry x="-2" y="828.45" width="210" height="90" as="geometry" />
        </mxCell>
        <mxCell id="8jF7TPRkGaJK1Sz48vTi-25" value="priority_subscribed_topics_" style="text;strokeColor=none;fillColor=none;align=left;verticalAlign=middle;spacingLeft=4;spacingRight=4;overflow=hidden;points=[[0,0.5],[1,0.5]];portConstraint=eastwest;rotatable=0;whiteSpace=wrap;html=1;fontSize=13;fontStyle=1" vertex="1" parent="8jF7TPRkGaJK1Sz48vTi-24">
          <mxGeometry y="30" width="210" height="30" as="geometry" />
        </mxCell>
        <mxCell id="8jF7TPRkGaJK1Sz48vTi-26" value="non_priority_subscribed_topics_" style="text;strokeColor=none;fillColor=none;align=left;verticalAlign=middle;spacingLeft=4;spacingRight=4;overflow=hidden;points=[[0,0.5],[1,0.5]];portConstraint=eastwest;rotatable=0;whiteSpace=wrap;html=1;fontSize=13;fontStyle=1" vertex="1" parent="8jF7TPRkGaJK1Sz48vTi-24">
          <mxGeometry y="60" width="210" height="30" as="geometry" />
        </mxCell>
        <mxCell id="8jF7TPRkGaJK1Sz48vTi-29" value="" style="endArrow=classic;html=1;rounded=0;entryX=0;entryY=0.25;entryDx=0;entryDy=0;exitX=0;exitY=0.5;exitDx=0;exitDy=0;edgeStyle=orthogonalEdgeStyle;fontSize=13;fontStyle=1" edge="1" parent="1" source="8jF7TPRkGaJK1Sz48vTi-16" target="8jF7TPRkGaJK1Sz48vTi-24">
          <mxGeometry width="50" height="50" relative="1" as="geometry">
            <mxPoint x="-52" y="830" as="sourcePoint" />
            <mxPoint x="-2" y="780" as="targetPoint" />
            <Array as="points">
              <mxPoint x="-2" y="645" />
              <mxPoint x="-52" y="645" />
              <mxPoint x="-52" y="851" />
            </Array>
          </mxGeometry>
        </mxCell>
        <mxCell id="8jF7TPRkGaJK1Sz48vTi-42" value="&amp;lt;SubscriberId,&amp;nbsp;Subscriber&amp;gt;" style="edgeLabel;html=1;align=center;verticalAlign=middle;resizable=0;points=[];fontSize=13;fontStyle=0" vertex="1" connectable="0" parent="8jF7TPRkGaJK1Sz48vTi-29">
          <mxGeometry x="-0.0264" y="-3" relative="1" as="geometry">
            <mxPoint as="offset" />
          </mxGeometry>
        </mxCell>
        <mxCell id="8jF7TPRkGaJK1Sz48vTi-30" value="TopicSubscription" style="swimlane;fontStyle=1;childLayout=stackLayout;horizontal=1;startSize=30;horizontalStack=0;resizeParent=1;resizeParentMax=0;resizeLast=0;collapsible=1;marginBottom=0;whiteSpace=wrap;html=1;fillColor=#1ba1e2;fontColor=#ffffff;strokeColor=#006EAF;fontSize=13;" vertex="1" parent="1">
          <mxGeometry x="450" y="828.45" width="240" height="180" as="geometry">
            <mxRectangle x="760" y="570" width="130" height="30" as="alternateBounds" />
          </mxGeometry>
        </mxCell>
        <mxCell id="8jF7TPRkGaJK1Sz48vTi-31" value="last_version" style="text;strokeColor=none;fillColor=none;align=left;verticalAlign=middle;spacingLeft=4;spacingRight=4;overflow=hidden;points=[[0,0.5],[1,0.5]];portConstraint=eastwest;rotatable=0;whiteSpace=wrap;html=1;fontSize=13;fontStyle=1" vertex="1" parent="8jF7TPRkGaJK1Sz48vTi-30">
          <mxGeometry y="30" width="240" height="30" as="geometry" />
        </mxCell>
        <mxCell id="8jF7TPRkGaJK1Sz48vTi-32" value="transient_entries_" style="text;strokeColor=none;fillColor=none;align=left;verticalAlign=middle;spacingLeft=4;spacingRight=4;overflow=hidden;points=[[0,0.5],[1,0.5]];portConstraint=eastwest;rotatable=0;whiteSpace=wrap;html=1;fontSize=13;fontStyle=1" vertex="1" parent="8jF7TPRkGaJK1Sz48vTi-30">
          <mxGeometry y="60" width="240" height="30" as="geometry" />
        </mxCell>
        <mxCell id="8jF7TPRkGaJK1Sz48vTi-56" value="is_transient" style="text;strokeColor=none;fillColor=none;align=left;verticalAlign=middle;spacingLeft=4;spacingRight=4;overflow=hidden;points=[[0,0.5],[1,0.5]];portConstraint=eastwest;rotatable=0;whiteSpace=wrap;html=1;fontSize=13;fontStyle=0" vertex="1" parent="8jF7TPRkGaJK1Sz48vTi-30">
          <mxGeometry y="90" width="240" height="30" as="geometry" />
        </mxCell>
        <mxCell id="8jF7TPRkGaJK1Sz48vTi-58" value="filter_prefix" style="text;strokeColor=none;fillColor=none;align=left;verticalAlign=middle;spacingLeft=4;spacingRight=4;overflow=hidden;points=[[0,0.5],[1,0.5]];portConstraint=eastwest;rotatable=0;whiteSpace=wrap;html=1;fontSize=13;fontStyle=0" vertex="1" parent="8jF7TPRkGaJK1Sz48vTi-30">
          <mxGeometry y="120" width="240" height="30" as="geometry" />
        </mxCell>
        <mxCell id="8jF7TPRkGaJK1Sz48vTi-61" value="populate_min_subscriber_topic_version" style="text;strokeColor=none;fillColor=none;align=left;verticalAlign=middle;spacingLeft=4;spacingRight=4;overflow=hidden;points=[[0,0.5],[1,0.5]];portConstraint=eastwest;rotatable=0;whiteSpace=wrap;html=1;fontSize=13;fontStyle=0" vertex="1" parent="8jF7TPRkGaJK1Sz48vTi-30">
          <mxGeometry y="150" width="240" height="30" as="geometry" />
        </mxCell>
        <mxCell id="8jF7TPRkGaJK1Sz48vTi-36" value="" style="endArrow=classic;html=1;rounded=0;exitX=1;exitY=0.5;exitDx=0;exitDy=0;entryX=0;entryY=0.5;entryDx=0;entryDy=0;fontSize=13;fontStyle=1" edge="1" parent="1" source="8jF7TPRkGaJK1Sz48vTi-25" target="8jF7TPRkGaJK1Sz48vTi-31">
          <mxGeometry width="50" height="50" relative="1" as="geometry">
            <mxPoint x="530" y="868.45" as="sourcePoint" />
            <mxPoint x="580" y="818.45" as="targetPoint" />
          </mxGeometry>
        </mxCell>
        <mxCell id="8jF7TPRkGaJK1Sz48vTi-38" value="&amp;lt;TopicId, TopicSubscription&amp;gt;" style="edgeLabel;html=1;align=center;verticalAlign=middle;resizable=0;points=[];fontSize=13;fontStyle=0" vertex="1" connectable="0" parent="8jF7TPRkGaJK1Sz48vTi-36">
          <mxGeometry x="-0.1296" y="2" relative="1" as="geometry">
            <mxPoint x="12" as="offset" />
          </mxGeometry>
        </mxCell>
        <mxCell id="8jF7TPRkGaJK1Sz48vTi-37" value="" style="endArrow=classic;html=1;rounded=0;exitX=1;exitY=0.5;exitDx=0;exitDy=0;entryX=0;entryY=0.5;entryDx=0;entryDy=0;fontSize=13;fontStyle=1" edge="1" parent="1" source="8jF7TPRkGaJK1Sz48vTi-26" target="8jF7TPRkGaJK1Sz48vTi-32">
          <mxGeometry width="50" height="50" relative="1" as="geometry">
            <mxPoint x="690" y="898.45" as="sourcePoint" />
            <mxPoint x="740" y="848.45" as="targetPoint" />
          </mxGeometry>
        </mxCell>
        <mxCell id="8jF7TPRkGaJK1Sz48vTi-39" value="&amp;lt;TopicId, TopicSubscription&amp;gt;" style="edgeLabel;html=1;align=center;verticalAlign=middle;resizable=0;points=[];fontSize=13;fontStyle=0" vertex="1" connectable="0" parent="8jF7TPRkGaJK1Sz48vTi-37">
          <mxGeometry x="0.3281" y="-1" relative="1" as="geometry">
            <mxPoint x="-44" y="-1" as="offset" />
          </mxGeometry>
        </mxCell>
        <mxCell id="8jF7TPRkGaJK1Sz48vTi-40" value="" style="endArrow=classicThin;dashed=1;html=1;dashPattern=1 3;strokeWidth=1;rounded=0;entryX=0.5;entryY=0;entryDx=0;entryDy=0;startArrow=classic;startFill=1;endFill=1;exitX=0.507;exitY=1.15;exitDx=0;exitDy=0;exitPerimeter=0;fontSize=13;fontStyle=1" edge="1" parent="1" source="8jF7TPRkGaJK1Sz48vTi-21" target="8jF7TPRkGaJK1Sz48vTi-30">
          <mxGeometry width="50" height="50" relative="1" as="geometry">
            <mxPoint x="530" y="730" as="sourcePoint" />
            <mxPoint x="440" y="680" as="targetPoint" />
          </mxGeometry>
        </mxCell>
        <mxCell id="8jF7TPRkGaJK1Sz48vTi-41" value="1:1" style="edgeLabel;html=1;align=center;verticalAlign=middle;resizable=0;points=[];fontSize=13;fontStyle=1" vertex="1" connectable="0" parent="8jF7TPRkGaJK1Sz48vTi-40">
          <mxGeometry x="-0.1394" y="3" relative="1" as="geometry">
            <mxPoint x="-4" as="offset" />
          </mxGeometry>
        </mxCell>
        <mxCell id="8jF7TPRkGaJK1Sz48vTi-49" value="TopicEntry" style="swimlane;fontStyle=1;childLayout=stackLayout;horizontal=1;startSize=30;horizontalStack=0;resizeParent=1;resizeParentMax=0;resizeLast=0;collapsible=1;marginBottom=0;whiteSpace=wrap;html=1;fillColor=#1ba1e2;fontColor=#ffffff;strokeColor=#006EAF;fontSize=13;" vertex="1" parent="1">
          <mxGeometry x="856" y="620" width="140" height="120" as="geometry" />
        </mxCell>
        <mxCell id="8jF7TPRkGaJK1Sz48vTi-50" value="value_" style="text;strokeColor=none;fillColor=none;align=left;verticalAlign=middle;spacingLeft=4;spacingRight=4;overflow=hidden;points=[[0,0.5],[1,0.5]];portConstraint=eastwest;rotatable=0;whiteSpace=wrap;html=1;fontSize=13;fontStyle=1" vertex="1" parent="8jF7TPRkGaJK1Sz48vTi-49">
          <mxGeometry y="30" width="140" height="30" as="geometry" />
        </mxCell>
        <mxCell id="8jF7TPRkGaJK1Sz48vTi-51" value="version_" style="text;strokeColor=none;fillColor=none;align=left;verticalAlign=middle;spacingLeft=4;spacingRight=4;overflow=hidden;points=[[0,0.5],[1,0.5]];portConstraint=eastwest;rotatable=0;whiteSpace=wrap;html=1;fontSize=13;fontStyle=1" vertex="1" parent="8jF7TPRkGaJK1Sz48vTi-49">
          <mxGeometry y="60" width="140" height="30" as="geometry" />
        </mxCell>
        <mxCell id="8jF7TPRkGaJK1Sz48vTi-52" value="is_deleted_" style="text;strokeColor=none;fillColor=none;align=left;verticalAlign=middle;spacingLeft=4;spacingRight=4;overflow=hidden;points=[[0,0.5],[1,0.5]];portConstraint=eastwest;rotatable=0;whiteSpace=wrap;html=1;fontSize=13;fontStyle=0" vertex="1" parent="8jF7TPRkGaJK1Sz48vTi-49">
          <mxGeometry y="90" width="140" height="30" as="geometry" />
        </mxCell>
        <mxCell id="8jF7TPRkGaJK1Sz48vTi-54" value="" style="endArrow=classic;html=1;rounded=0;exitX=1;exitY=0.5;exitDx=0;exitDy=0;entryX=-0.007;entryY=0.167;entryDx=0;entryDy=0;entryPerimeter=0;fontSize=13;fontStyle=1" edge="1" parent="1" source="8jF7TPRkGaJK1Sz48vTi-19" target="8jF7TPRkGaJK1Sz48vTi-49">
          <mxGeometry width="50" height="50" relative="1" as="geometry">
            <mxPoint x="697" y="830" as="sourcePoint" />
            <mxPoint x="747" y="780" as="targetPoint" />
          </mxGeometry>
        </mxCell>
        <mxCell id="8jF7TPRkGaJK1Sz48vTi-55" value="&amp;lt;TopicEntryKey, TopicEntry&amp;gt;" style="edgeLabel;html=1;align=center;verticalAlign=middle;resizable=0;points=[];fontSize=13;fontStyle=0" vertex="1" connectable="0" parent="8jF7TPRkGaJK1Sz48vTi-54">
          <mxGeometry x="-0.1094" relative="1" as="geometry">
            <mxPoint as="offset" />
          </mxGeometry>
        </mxCell>
        <mxCell id="8jF7TPRkGaJK1Sz48vTi-64" value="" style="endArrow=classic;html=1;rounded=0;exitX=1;exitY=0.5;exitDx=0;exitDy=0;edgeStyle=orthogonalEdgeStyle;dashed=1;entryX=1;entryY=0.5;entryDx=0;entryDy=0;" edge="1" parent="1" source="8jF7TPRkGaJK1Sz48vTi-32" target="8jF7TPRkGaJK1Sz48vTi-20">
          <mxGeometry width="50" height="50" relative="1" as="geometry">
            <mxPoint x="840" y="930" as="sourcePoint" />
            <mxPoint x="932" y="744" as="targetPoint" />
            <Array as="points">
              <mxPoint x="800" y="904" />
              <mxPoint x="800" y="670" />
            </Array>
          </mxGeometry>
        </mxCell>
        <mxCell id="8jF7TPRkGaJK1Sz48vTi-65" value="&amp;lt;TopicEntryKey, Version&amp;gt;" style="edgeLabel;html=1;align=center;verticalAlign=middle;resizable=0;points=[];" vertex="1" connectable="0" parent="8jF7TPRkGaJK1Sz48vTi-64">
          <mxGeometry x="-0.369" y="-2" relative="1" as="geometry">
            <mxPoint x="-2" y="-63" as="offset" />
          </mxGeometry>
        </mxCell>
      </root>
    </mxGraphModel>
  </diagram>
</mxfile>
